<svg width="1239" height="805" viewBox="0 0 1239 805" fill="none" xmlns="http://www.w3.org/2000/svg">
<path d="M1133 369.5C1123.5 342.5 1152.5 410.5 1146.5 411.5C1140.5 412.5 1111.5 395 1111.5 395C1111.5 395 1127.5 439 1123.5 448C1119.5 457 1086 448 1086 448C1086 448 1103 483.5 1096.5 492.5C1090 501.5 1055 502 1055 502C1055 502 1067.5 537.5 1064 545C1060.5 552.5 1021 554.5 1021 554.5V565.5L1055 580C1055 580 1075.5 565.5 1086 565.5C1096.5 565.5 1096.5 598 1096.5 598C1096.5 598 1116.5 578 1123.5 580C1130.5 582 1123.5 608.5 1123.5 608.5M796.5 625.5C809.833 616.333 839.8 598 853 598C866.2 598 880.833 632.333 886.5 649.5C899.667 632.333 929.1 598 941.5 598C957 598 991.5 647 989.5 656.5C987.5 666 1026 609 1040.5 603.5C1052.1 599.1 1067.67 623.333 1074 636C1074.57 625.333 1077.77 602.8 1086 598C1094.23 593.2 1105.09 606 1109.5 613" stroke="white" stroke-width="7"/>
<path d="M794 516C783 522.5 756.5 516 756.5 516L794 465.5C794 465.5 805 509.5 794 516Z" stroke="white" stroke-width="7"/>
<path d="M856.093 451.04C843.852 454.702 819.695 442.016 819.695 442.016L868.246 402.024C868.246 402.024 868.334 447.378 856.093 451.04Z" stroke="white" stroke-width="7"/>
<path d="M954.219 397.62C939.105 397.603 905.5 373.5 905.5 373.5L982.5 346.5C982.5 346.5 969.334 397.637 954.219 397.62Z" stroke="white" stroke-width="7"/>
<path d="M1045.09 381.087C1031.3 374.887 1010.5 339.144 1010.5 339.144L1091.81 346.014C1091.81 346.014 1058.87 387.287 1045.09 381.087Z" stroke="white" stroke-width="7"/>
<g filter="url(#filter0_f)">
<path d="M265 638.5C279 633.5 358 576.5 463.5 553C547.9 534.2 650 462.833 690.5 429.5L851.5 283C920.667 223.333 1078.3 114 1155.5 154" stroke="white" stroke-width="4"/>
</g>
<ellipse cx="704.604" cy="417.632" rx="13.5421" ry="27.3646" transform="rotate(-10.7215 704.604 417.632)" fill="#00FFFF"/>
<g style="mix-blend-mode:hard-light" filter="url(#filter1_f)">
<path d="M1127.36 349.345C1167.36 318.545 1201.21 206.842 1153.86 138.845C1108.72 73.9958 1038.36 72.3447 958.864 84.8447C879.364 97.3447 752.031 146.178 694.364 176.845C507.564 14.4447 290.365 66.8447 330.365 84.8447C370.365 102.845 448.364 306.845 433.865 322.345C419.365 337.845 332.865 389.011 303.365 422.345C251.811 353.022 161.521 244.62 84.8646 230.345C8.20835 216.07 145.35 554.855 222.865 586.845C186.065 586.845 156.531 604.845 146.365 613.845C140.031 622.678 134.965 644.245 165.365 659.845C195.765 675.445 247.031 653.345 268.865 640.345H387.865C359.698 655.678 303.365 693.245 303.365 720.845C303.365 748.445 381.865 743.845 414.365 740.345C446.864 736.845 612.531 709.511 694.364 686.345C844.764 707.545 1111.36 701.845 1127.36 659.845C1143.36 617.845 1119.36 605.845 1119.36 605.845M1127.36 349.345L1012.36 563.845L1119.36 605.845M1127.36 349.345C903.765 257.345 694.364 542.345 720.864 586.845C747.364 631.345 1017.56 708.445 1100.36 628.845L1119.36 605.845" stroke="#00A8A8" stroke-width="28"/>
</g>
<path d="M1127.5 349.5C1167.5 318.7 1201.34 206.997 1154 139C1108.85 74.1512 1038.5 72.5001 959 85.0001C879.5 97.5001 752.167 146.333 694.5 177C507.7 14.6001 290.5 67.0001 330.5 85.0001C370.5 103 448.5 307 434 322.5C419.501 338 333 389.167 303.5 422.5C251.947 353.177 161.657 244.775 85.0003 230.5C8.34409 216.225 145.486 555.011 223 587C186.2 587 156.667 605 146.5 614C140.167 622.834 135.1 644.4 165.5 660C195.9 675.6 247.167 653.5 269 640.5H388C359.834 655.834 303.5 693.4 303.5 721C303.5 748.6 382.001 744 414.5 740.5C447 737 612.667 709.667 694.5 686.5C844.9 707.7 1111.5 702 1127.5 660C1143.5 618 1119.5 606 1119.5 606M1127.5 349.5L1012.5 564L1119.5 606M1127.5 349.5C903.901 257.5 694.5 542.5 721 587C747.5 631.5 1017.7 708.6 1100.5 629L1119.5 606" stroke="#00FFFF" stroke-width="16"/>
<defs>
<filter id="filter0_f" x="258.327" y="137.408" width="904.093" height="508.976" filterUnits="userSpaceOnUse" color-interpolation-filters="sRGB">
<feFlood flood-opacity="0" result="BackgroundImageFix"/>
<feBlend mode="normal" in="SourceGraphic" in2="BackgroundImageFix" result="shape"/>
<feGaussianBlur stdDeviation="3" result="effect1_foregroundBlur"/>
</filter>
<filter id="filter1_f" x="0.31665" y="0.33313" width="1238.64" height="804.665" filterUnits="userSpaceOnUse" color-interpolation-filters="sRGB">
<feFlood flood-opacity="0" result="BackgroundImageFix"/>
<feBlend mode="normal" in="SourceGraphic" in2="BackgroundImageFix" result="shape"/>
<feGaussianBlur stdDeviation="24" result="effect1_foregroundBlur"/>
</filter>
</defs>
</svg>
