<svg width="910" height="1366" viewBox="0 0 910 1366" fill="none" xmlns="http://www.w3.org/2000/svg">
<ellipse cx="453.181" cy="600.15" rx="34.1468" ry="16.9561" transform="rotate(3.74506 453.181 600.15)" fill="#FF7B7B"/>
<path d="M450.929 609.299C453.715 622.546 461.106 649.818 468.386 652.937C477.485 656.837 491.783 641.424 486.583 631.118" stroke="#FF7B7B" stroke-width="10"/>
<path d="M452.004 608.394C451.754 621.928 449.613 650.103 443.048 654.533C434.843 660.071 417.906 647.615 421.079 636.517" stroke="#FF7B7B" stroke-width="10"/>
<circle cx="328.875" cy="535.144" r="13" transform="rotate(-7.82416 328.875 535.144)" fill="#FF7B7B"/>
<circle cx="570.415" cy="537.283" r="13" transform="rotate(-7.82416 570.415 537.283)" fill="#FF7B7B"/>
<path d="M284 749C307.5 683.5 187 881.5 187 881.5C187 881.5 108.8 953.4 90 955C66.5 957 59 1012.5 74.5 1034C86.9 1051.2 104.5 1080.5 139.5 1081.5C174.5 1082.5 215 1024 215 1024C238.5 947 349.5 703 317.5 771M622.5 735C644.333 776.5 719.5 867.5 719.5 867.5C719.5 867.5 797.7 939.4 816.5 941C840 943 847.5 998.5 832 1020C819.6 1037.2 806.5 1067 767 1067.5C727.5 1068 691.5 1010 691.5 1010C668 933 614.6 774.6 589 757M419.801 1224C431.565 1184.18 425.117 1137.57 416.5 1109C392.9 1004.6 344 983 272 996.5C200 1010 197 1140.67 211 1192C220.833 1236.17 262.7 1318.2 351.5 1293C390.398 1281.96 410.632 1255.04 419.801 1224ZM419.801 1224H491.5M491.5 1224C502.167 1247 522 1282 559 1293C596 1304 720.5 1311 715 1121C710.6 969 581 994 549 1014C517 1034 473.9 1116.4 491.5 1224ZM462.5 311C391 305 266.686 388.13 238.5 478.5C205.607 583.963 182.814 644.144 238.5 703C289.1 756.48 425 778 473 774.5C521 771 660.918 743.769 700 676C738.838 608.654 684.542 485.261 643 427C624.547 396.087 575.5 314 462.5 311ZM574 343C592.167 246.667 656.1 58.5 766.5 76.5C876.9 94.5 808.5 257 766.5 311C724.5 365 655.5 422 655.5 422L574 343ZM356.458 335.705C338.291 239.371 274.358 51.2047 163.958 69.2047C53.5576 87.2047 127.415 234.909 163.958 303.705C200.5 372.5 274.958 414.705 274.958 414.705L356.458 335.705Z" stroke="#FF7B7B" stroke-width="25"/>
<g style="mix-blend-mode:hard-light" filter="url(#filter0_f)">
<path d="M285.625 749C309.125 683.5 188.625 881.5 188.625 881.5C188.625 881.5 110.425 953.4 91.625 955C68.125 957 60.625 1012.5 76.125 1034C88.525 1051.2 106.125 1080.5 141.125 1081.5C176.125 1082.5 216.625 1024 216.625 1024C240.125 947 351.125 703 319.125 771M624.125 735C645.958 776.5 721.125 867.5 721.125 867.5C721.125 867.5 799.325 939.4 818.125 941C841.625 943 849.125 998.5 833.625 1020C821.225 1037.2 808.125 1067 768.625 1067.5C729.125 1068 693.125 1010 693.125 1010C669.625 933 616.225 774.6 590.625 757M421.426 1224C433.19 1184.18 426.742 1137.57 418.125 1109C394.525 1004.6 345.625 983 273.625 996.5C201.625 1010 198.625 1140.67 212.625 1192C222.458 1236.17 264.325 1318.2 353.125 1293C392.023 1281.96 412.257 1255.04 421.426 1224ZM421.426 1224H493.125M493.125 1224C503.792 1247 523.625 1282 560.625 1293C597.625 1304 722.125 1311 716.625 1121C712.225 969 582.625 994 550.625 1014C518.625 1034 475.525 1116.4 493.125 1224ZM464.125 311C392.625 305 268.311 388.13 240.125 478.5C207.232 583.963 184.439 644.144 240.125 703C290.725 756.48 426.625 778 474.625 774.5C522.625 771 662.543 743.769 701.625 676C740.463 608.654 686.167 485.261 644.625 427C626.172 396.087 577.125 314 464.125 311ZM575.625 343C593.792 246.667 657.725 58.5 768.125 76.5C878.525 94.5 810.125 257 768.125 311C726.125 365 657.125 422 657.125 422L575.625 343ZM358.083 335.705C339.916 239.371 275.983 51.2047 165.583 69.2047C55.1826 87.2047 129.04 234.909 165.583 303.705C202.125 372.5 276.583 414.705 276.583 414.705L358.083 335.705Z" stroke="#F32E7C" stroke-width="16.25"/>
</g>
<defs>
<filter id="filter0_f" x="0.25" y="0.236633" width="909.25" height="1365.23" filterUnits="userSpaceOnUse" color-interpolation-filters="sRGB">
<feFlood flood-opacity="0" result="BackgroundImageFix"/>
<feBlend mode="normal" in="SourceGraphic" in2="BackgroundImageFix" result="shape"/>
<feGaussianBlur stdDeviation="29.8125" result="effect1_foregroundBlur"/>
</filter>
</defs>
</svg>
