<svg width="931" height="1096" viewBox="0 0 931 1096" fill="none" xmlns="http://www.w3.org/2000/svg">
<ellipse cx="470.5" cy="294" rx="50.5" ry="30" transform="rotate(11.5692 470.5 294)" fill="#F3DD12"/>
<path d="M461.5 323C459.167 336.333 455.9 364.4 461.5 370C468.5 377 487.5 368 486.5 356.5" stroke="#F3DD12" stroke-width="18"/>
<path d="M462.834 322.559C457.575 335.031 445.123 360.396 437.382 362.071C427.707 364.165 416.608 346.31 423.676 337.184" stroke="#F3DD12" stroke-width="17"/>
<circle cx="366" cy="275" r="13" fill="#F3DD12"/>
<circle cx="605" cy="310" r="13" fill="#F3DD12"/>
<g style="mix-blend-mode:hard-light" filter="url(#filter0_f)">
<path d="M307.856 459.748C229.856 371.348 275.356 277.248 307.856 241.248C281.356 209.581 248.356 133.348 328.356 81.7475C408.356 30.1475 444.022 103.248 451.856 146.248C550.656 123.848 654.022 170.914 693.356 197.248C758.956 116.848 818.356 148.414 839.856 174.248C909.856 287.448 824.689 339.748 773.356 351.748C790.156 421.748 715.022 488.914 675.356 513.748C829.356 639.348 818.522 747.748 793.856 786.248C769.456 807.048 704.689 777.581 675.356 760.248C675.356 805.448 632.689 875.081 611.356 904.248C679.356 933.048 682.356 988.248 675.356 1012.25C601.356 1067.85 516.189 989.081 482.856 942.748C417.256 946.748 318.189 918.748 276.856 904.248C99.3558 973.748 37.8558 863.248 73.8558 834.748C102.656 811.948 168.189 808.248 197.356 809.248C166.356 729.748 215.356 616.248 197.356 639.748C182.956 658.548 128.022 647.581 102.356 639.748C87.689 622.581 71.7557 578.948 125.356 541.748C178.956 504.548 283.022 486.914 328.356 482.748L307.856 459.748Z" stroke="#FBE734" stroke-width="10"/>
</g>
<path d="M301.5 460C223.5 371.6 269 277.5 301.5 241.5C275 209.833 242 133.6 322 82C402 30.4 437.667 103.5 445.5 146.5C544.3 124.1 647.667 171.167 687 197.5C752.6 117.1 812 148.667 833.5 174.5C903.5 287.7 818.333 340 767 352C783.8 422 708.667 489.167 669 514C823 639.6 812.167 748 787.5 786.5C763.1 807.3 698.333 777.833 669 760.5C669 805.7 626.333 875.333 605 904.5C673 933.3 676 988.5 669 1012.5C595 1068.1 509.833 989.333 476.5 943C410.9 947 311.833 919 270.5 904.5C93.0001 974 31.5001 863.5 67.5001 835C96.3001 812.2 161.833 808.5 191 809.5C160 730 209 616.5 191 640C176.6 658.8 121.667 647.833 96 640C81.3333 622.833 65.4 579.2 119 542C172.6 504.8 276.667 487.167 322 483L301.5 460Z" stroke="#F3DD12" stroke-width="25"/>
<defs>
<filter id="filter0_f" x="0.13208" y="0.125" width="930.086" height="1095.12" filterUnits="userSpaceOnUse" color-interpolation-filters="sRGB">
<feFlood flood-opacity="0" result="BackgroundImageFix"/>
<feBlend mode="normal" in="SourceGraphic" in2="BackgroundImageFix" result="shape"/>
<feGaussianBlur stdDeviation="29.4375" result="effect1_foregroundBlur"/>
</filter>
</defs>
</svg>
