<svg width="1440" height="1024" viewBox="0 0 1440 1024" fill="none" xmlns="http://www.w3.org/2000/svg">
<g clip-path="url(#clip0)">
<rect width="1440" height="1024" fill="black"/>
<path d="M70.88 104.928C72.256 104.928 73.424 104.704 74.384 104.256C75.376 103.776 76.176 103.152 76.784 102.384C77.424 101.584 77.888 100.688 78.176 99.696C78.496 98.672 78.656 97.6 78.656 96.48V95.904H82.688V96.48C82.688 98.176 82.432 99.776 81.92 101.28C81.408 102.752 80.656 104.048 79.664 105.168C78.672 106.256 77.44 107.12 75.968 107.76C74.496 108.368 72.8 108.672 70.88 108.672C67.168 108.672 64.272 107.504 62.192 105.168C60.112 102.832 59.072 99.424 59.072 94.944V87.456C59.072 83.104 60.112 79.728 62.192 77.328C64.272 74.928 67.168 73.728 70.88 73.728C72.8 73.728 74.496 74.048 75.968 74.688C77.44 75.296 78.672 76.16 79.664 77.28C80.656 78.368 81.408 79.664 81.92 81.168C82.432 82.64 82.688 84.224 82.688 85.92V86.496H78.656V85.92C78.624 84.832 78.448 83.776 78.128 82.752C77.84 81.728 77.376 80.832 76.736 80.064C76.128 79.264 75.344 78.64 74.384 78.192C73.424 77.712 72.256 77.472 70.88 77.472C68.288 77.472 66.336 78.416 65.024 80.304C63.744 82.192 63.104 84.672 63.104 87.744V94.656C63.104 97.952 63.744 100.496 65.024 102.288C66.336 104.048 68.288 104.928 70.88 104.928ZM88.2706 87.456C88.2706 83.104 89.3106 79.728 91.3906 77.328C93.4706 74.928 96.3666 73.728 100.079 73.728C103.791 73.728 106.687 74.928 108.767 77.328C110.847 79.728 111.887 83.104 111.887 87.456V94.944C111.887 99.424 110.847 102.832 108.767 105.168C106.687 107.504 103.791 108.672 100.079 108.672C96.3666 108.672 93.4706 107.504 91.3906 105.168C89.3106 102.832 88.2706 99.424 88.2706 94.944V87.456ZM100.079 104.928C102.671 104.928 104.607 104.048 105.887 102.288C107.199 100.496 107.855 97.952 107.855 94.656V87.744C107.855 84.672 107.199 82.192 105.887 80.304C104.607 78.416 102.671 77.472 100.079 77.472C97.4866 77.472 95.5346 78.416 94.2226 80.304C92.9426 82.192 92.3026 84.672 92.3026 87.744V94.656C92.3026 97.952 92.9426 100.496 94.2226 102.288C95.5346 104.048 97.4866 104.928 100.079 104.928ZM118.813 74.4H140.125V78.144H131.485V104.256H140.125V108H118.813V104.256H127.453V78.144H118.813V74.4ZM165.436 106.272H166.012V74.4H170.044V108H161.98L152.284 76.128H151.708V108H147.676V74.4H155.74L165.436 106.272ZM196.171 84.096C196.171 83.008 195.947 82.048 195.499 81.216C195.083 80.384 194.507 79.696 193.771 79.152C193.035 78.608 192.187 78.192 191.227 77.904C190.267 77.616 189.259 77.472 188.203 77.472C187.275 77.472 186.395 77.6 185.562 77.856C184.731 78.08 183.979 78.416 183.307 78.864C182.667 79.312 182.155 79.872 181.771 80.544C181.387 81.184 181.195 81.936 181.195 82.8V83.088C181.195 84.016 181.387 84.816 181.771 85.488C182.155 86.128 182.715 86.688 183.451 87.168C184.219 87.616 185.163 88 186.283 88.32C187.403 88.608 188.715 88.864 190.219 89.088C193.739 89.632 196.331 90.672 197.995 92.208C199.659 93.712 200.491 95.744 200.491 98.304V98.88C200.491 100.32 200.235 101.648 199.723 102.864C199.243 104.048 198.507 105.072 197.515 105.936C196.555 106.8 195.355 107.472 193.915 107.952C192.475 108.432 190.811 108.672 188.923 108.672C186.779 108.672 184.875 108.368 183.211 107.76C181.579 107.12 180.203 106.256 179.083 105.168C177.995 104.048 177.163 102.752 176.587 101.28C176.011 99.776 175.723 98.144 175.723 96.384V94.944H179.755V96.096C179.755 99.04 180.555 101.248 182.155 102.72C183.787 104.192 186.043 104.928 188.923 104.928C191.419 104.928 193.291 104.384 194.539 103.296C195.819 102.176 196.459 100.704 196.459 98.88V98.592C196.459 96.832 195.803 95.488 194.491 94.56C193.211 93.632 191.115 92.96 188.203 92.544C186.507 92.32 184.971 91.984 183.595 91.536C182.251 91.056 181.099 90.448 180.139 89.712C179.179 88.944 178.443 88.032 177.931 86.976C177.419 85.92 177.163 84.672 177.163 83.232V82.656C177.163 81.344 177.435 80.144 177.979 79.056C178.523 77.968 179.275 77.024 180.235 76.224C181.227 75.424 182.395 74.816 183.739 74.4C185.115 73.952 186.619 73.728 188.251 73.728C190.139 73.728 191.819 74 193.291 74.544C194.795 75.088 196.059 75.824 197.083 76.752C198.107 77.648 198.875 78.72 199.387 79.968C199.931 81.184 200.203 82.464 200.203 83.808V85.824H196.171V84.096Z" fill="white"/>
<path d="M245.256 104.256V76.176H244.68L239.16 88.8H235.176V88.512L241.464 74.4H249.288V104.256H258.792V108H235.752V104.256H245.256ZM264.614 87.456C264.614 83.104 265.654 79.728 267.734 77.328C269.814 74.928 272.71 73.728 276.422 73.728C280.134 73.728 283.03 74.928 285.11 77.328C287.19 79.728 288.23 83.104 288.23 87.456V94.944C288.23 99.424 287.19 102.832 285.11 105.168C283.03 107.504 280.134 108.672 276.422 108.672C272.71 108.672 269.814 107.504 267.734 105.168C265.654 102.832 264.614 99.424 264.614 94.944V87.456ZM276.422 105.024C279.014 105.024 280.95 104.128 282.23 102.336C283.542 100.512 284.198 97.952 284.198 94.656V87.744C284.198 86.208 284.038 84.816 283.718 83.568C283.398 82.288 282.902 81.2 282.23 80.304C281.59 79.376 280.774 78.656 279.782 78.144C278.822 77.632 277.702 77.376 276.422 77.376C275.11 77.376 273.974 77.632 273.014 78.144C272.054 78.656 271.238 79.376 270.566 80.304C269.926 81.2 269.446 82.288 269.126 83.568C268.806 84.816 268.646 86.208 268.646 87.744V94.656C268.646 97.952 269.286 100.512 270.566 102.336C271.878 104.128 273.83 105.024 276.422 105.024ZM273.35 91.2C273.35 90.368 273.654 89.648 274.262 89.04C274.87 88.432 275.59 88.128 276.422 88.128C277.254 88.128 277.974 88.432 278.582 89.04C279.19 89.648 279.494 90.368 279.494 91.2C279.494 92.032 279.19 92.752 278.582 93.36C277.974 93.968 277.254 94.272 276.422 94.272C275.59 94.272 274.87 93.968 274.262 93.36C273.654 92.752 273.35 92.032 273.35 91.2ZM294.005 87.456C294.005 83.104 295.045 79.728 297.125 77.328C299.205 74.928 302.101 73.728 305.813 73.728C309.525 73.728 312.421 74.928 314.501 77.328C316.581 79.728 317.621 83.104 317.621 87.456V94.944C317.621 99.424 316.581 102.832 314.501 105.168C312.421 107.504 309.525 108.672 305.813 108.672C302.101 108.672 299.205 107.504 297.125 105.168C295.045 102.832 294.005 99.424 294.005 94.944V87.456ZM305.813 105.024C308.405 105.024 310.341 104.128 311.621 102.336C312.933 100.512 313.589 97.952 313.589 94.656V87.744C313.589 86.208 313.429 84.816 313.109 83.568C312.789 82.288 312.293 81.2 311.621 80.304C310.981 79.376 310.165 78.656 309.173 78.144C308.213 77.632 307.093 77.376 305.813 77.376C304.501 77.376 303.365 77.632 302.405 78.144C301.445 78.656 300.629 79.376 299.957 80.304C299.317 81.2 298.837 82.288 298.517 83.568C298.197 84.816 298.037 86.208 298.037 87.744V94.656C298.037 97.952 298.677 100.512 299.957 102.336C301.269 104.128 303.221 105.024 305.813 105.024ZM302.741 91.2C302.741 90.368 303.045 89.648 303.653 89.04C304.261 88.432 304.981 88.128 305.813 88.128C306.645 88.128 307.365 88.432 307.973 89.04C308.581 89.648 308.885 90.368 308.885 91.2C308.885 92.032 308.581 92.752 307.973 93.36C307.365 93.968 306.645 94.272 305.813 94.272C304.981 94.272 304.261 93.968 303.653 93.36C303.045 92.752 302.741 92.032 302.741 91.2Z" fill="#00FFFF"/>
<path d="M87.5 956H0V938.5H50.3125C47.1484 926.411 40.8186 915.385 31.975 906.557C23.1315 897.729 12.0941 891.418 0 888.275C5.6 886.875 11.4625 886 17.5 886C56.175 886 87.5 917.325 87.5 956ZM175 888.275C169.4 886.875 163.538 886 157.5 886C131.863 886 109.55 899.825 97.3 920.388C102.353 931.578 104.949 943.722 104.912 956H174.912V938.5H124.6C127.796 926.413 134.147 915.392 143.003 906.567C151.859 897.741 162.902 891.429 175 888.275ZM119.35 877.425C126.128 859.294 138.71 843.913 155.137 833.675C117.6 834.9 87.5 865.612 87.5 903.5V903.675C95.8125 892.563 106.75 883.55 119.35 877.425ZM82.425 858.438C78.8017 848.92 73.2682 840.244 66.1654 832.946C59.0626 825.648 50.5409 819.881 41.125 816C53.725 832.275 61.25 852.575 61.25 874.713C61.25 876.55 60.9875 878.3 60.9 880.05C64.6625 882.15 68.1625 884.6 71.575 887.225C73.4469 877.059 77.1214 867.31 82.425 858.438Z" fill="#0CF540"/>
<path d="M523.5 956H436V938.5H486.312C483.148 926.411 476.819 915.385 467.975 906.557C459.131 897.729 448.094 891.418 436 888.275C441.6 886.875 447.462 886 453.5 886C492.175 886 523.5 917.325 523.5 956ZM611 888.275C605.4 886.875 599.538 886 593.5 886C567.863 886 545.55 899.825 533.3 920.388C538.353 931.578 540.949 943.722 540.912 956H610.912V938.5H560.6C563.796 926.413 570.147 915.392 579.003 906.567C587.859 897.741 598.902 891.429 611 888.275ZM555.35 877.425C562.128 859.294 574.71 843.913 591.137 833.675C553.6 834.9 523.5 865.612 523.5 903.5V903.675C531.812 892.563 542.75 883.55 555.35 877.425ZM518.425 858.438C514.802 848.92 509.268 840.244 502.165 832.946C495.063 825.648 486.541 819.881 477.125 816C489.725 832.275 497.25 852.575 497.25 874.713C497.25 876.55 496.987 878.3 496.9 880.05C500.662 882.15 504.163 884.6 507.575 887.225C509.447 877.059 513.121 867.31 518.425 858.438Z" fill="#0CF540"/>
<path d="M698.5 956H611V938.5H661.312C658.148 926.411 651.819 915.385 642.975 906.557C634.131 897.729 623.094 891.418 611 888.275C616.6 886.875 622.462 886 628.5 886C667.175 886 698.5 917.325 698.5 956ZM786 888.275C780.4 886.875 774.538 886 768.5 886C742.863 886 720.55 899.825 708.3 920.388C713.353 931.578 715.949 943.722 715.912 956H785.912V938.5H735.6C738.796 926.413 745.147 915.392 754.003 906.567C762.859 897.741 773.902 891.429 786 888.275ZM730.35 877.425C737.128 859.294 749.71 843.913 766.137 833.675C728.6 834.9 698.5 865.612 698.5 903.5V903.675C706.812 892.563 717.75 883.55 730.35 877.425ZM693.425 858.438C689.802 848.92 684.268 840.244 677.165 832.946C670.063 825.648 661.541 819.881 652.125 816C664.725 832.275 672.25 852.575 672.25 874.713C672.25 876.55 671.987 878.3 671.9 880.05C675.662 882.15 679.163 884.6 682.575 887.225C684.447 877.059 688.121 867.31 693.425 858.438Z" fill="#0CF540"/>
<path d="M1134.5 956H1047V938.5H1097.31C1094.15 926.411 1087.82 915.385 1078.98 906.557C1070.13 897.729 1059.09 891.418 1047 888.275C1052.6 886.875 1058.46 886 1064.5 886C1103.17 886 1134.5 917.325 1134.5 956ZM1222 888.275C1216.4 886.875 1210.54 886 1204.5 886C1178.86 886 1156.55 899.825 1144.3 920.388C1149.35 931.578 1151.95 943.722 1151.91 956H1221.91V938.5H1171.6C1174.8 926.413 1181.15 915.392 1190 906.567C1198.86 897.741 1209.9 891.429 1222 888.275ZM1166.35 877.425C1173.13 859.294 1185.71 843.913 1202.14 833.675C1164.6 834.9 1134.5 865.612 1134.5 903.5V903.675C1142.81 892.563 1153.75 883.55 1166.35 877.425ZM1129.43 858.438C1125.8 848.92 1120.27 840.244 1113.17 832.946C1106.06 825.648 1097.54 819.881 1088.12 816C1100.72 832.275 1108.25 852.575 1108.25 874.713C1108.25 876.55 1107.99 878.3 1107.9 880.05C1111.66 882.15 1115.16 884.6 1118.58 887.225C1120.45 877.059 1124.12 867.31 1129.43 858.438Z" fill="#0CF540"/>
<path d="M1309.5 956H1222V938.5H1272.31C1269.15 926.411 1262.82 915.385 1253.98 906.557C1245.13 897.729 1234.09 891.418 1222 888.275C1227.6 886.875 1233.46 886 1239.5 886C1278.17 886 1309.5 917.325 1309.5 956ZM1397 888.275C1391.4 886.875 1385.54 886 1379.5 886C1353.86 886 1331.55 899.825 1319.3 920.388C1324.35 931.578 1326.95 943.722 1326.91 956H1396.91V938.5H1346.6C1349.8 926.413 1356.15 915.392 1365 906.567C1373.86 897.741 1384.9 891.429 1397 888.275ZM1341.35 877.425C1348.13 859.294 1360.71 843.913 1377.14 833.675C1339.6 834.9 1309.5 865.612 1309.5 903.5V903.675C1317.81 892.563 1328.75 883.55 1341.35 877.425ZM1304.43 858.438C1300.8 848.92 1295.27 840.244 1288.17 832.946C1281.06 825.648 1272.54 819.881 1263.12 816C1275.72 832.275 1283.25 852.575 1283.25 874.713C1283.25 876.55 1282.99 878.3 1282.9 880.05C1286.66 882.15 1290.16 884.6 1293.58 887.225C1295.45 877.059 1299.12 867.31 1304.43 858.438Z" fill="#0CF540"/>
<path d="M1484.5 956H1397V938.5H1447.31C1444.15 926.411 1437.82 915.385 1428.98 906.557C1420.13 897.729 1409.09 891.418 1397 888.275C1402.6 886.875 1408.46 886 1414.5 886C1453.17 886 1484.5 917.325 1484.5 956ZM1572 888.275C1566.4 886.875 1560.54 886 1554.5 886C1528.86 886 1506.55 899.825 1494.3 920.388C1499.35 931.578 1501.95 943.722 1501.91 956H1571.91V938.5H1521.6C1524.8 926.413 1531.15 915.392 1540 906.567C1548.86 897.741 1559.9 891.429 1572 888.275ZM1516.35 877.425C1523.13 859.294 1535.71 843.913 1552.14 833.675C1514.6 834.9 1484.5 865.612 1484.5 903.5V903.675C1492.81 892.563 1503.75 883.55 1516.35 877.425ZM1479.43 858.438C1475.8 848.92 1470.27 840.244 1463.17 832.946C1456.06 825.648 1447.54 819.881 1438.12 816C1450.72 832.275 1458.25 852.575 1458.25 874.713C1458.25 876.55 1457.99 878.3 1457.9 880.05C1461.66 882.15 1465.16 884.6 1468.58 887.225C1470.45 877.059 1474.12 867.31 1479.43 858.438Z" fill="#0CF540"/>
<path d="M308 965H174V938.5H251.05C246.204 920.194 236.511 903.497 222.967 890.129C209.424 876.761 192.521 867.204 174 862.445C182.576 860.325 191.554 859 200.8 859C260.028 859 308 906.435 308 965ZM442 862.445C433.424 860.325 424.446 859 415.2 859C375.938 859 341.768 879.935 323.008 911.073C330.746 928.018 334.721 946.407 334.666 965H441.866V938.5H364.816C369.71 920.196 379.436 903.508 392.999 890.144C406.561 876.78 423.472 867.22 442 862.445ZM356.776 846.015C367.156 818.56 386.425 795.268 411.582 779.765C354.096 781.62 308 828.128 308 885.5V885.765C320.73 868.938 337.48 855.29 356.776 846.015ZM300.228 817.263C294.679 802.85 286.205 789.713 275.328 778.661C264.45 767.609 251.4 758.876 236.98 753C256.276 777.645 267.8 808.385 267.8 841.908C267.8 844.69 267.398 847.34 267.264 849.99C273.026 853.17 278.386 856.88 283.612 860.855C286.479 845.461 292.106 830.698 300.228 817.263Z" fill="#0CF540"/>
<path d="M934 965H786V938.5H871.1C865.748 920.194 855.042 903.497 840.083 890.129C825.125 876.761 806.456 867.204 786 862.445C795.472 860.325 805.388 859 815.6 859C881.016 859 934 906.435 934 965ZM1082 862.445C1072.53 860.325 1062.61 859 1052.4 859C1009.04 859 971.296 879.935 950.576 911.073C959.122 928.018 963.513 946.407 963.452 965H1081.85V938.5H996.752C1002.16 920.196 1012.9 903.508 1027.88 890.144C1042.86 876.78 1061.54 867.22 1082 862.445ZM987.872 846.015C999.337 818.56 1020.62 795.268 1048.4 779.765C984.912 781.62 934 828.128 934 885.5V885.765C948.06 868.938 966.56 855.29 987.872 846.015ZM925.416 817.263C919.287 802.85 909.928 789.713 897.914 778.661C885.9 767.609 871.486 758.876 855.56 753C876.872 777.645 889.6 808.385 889.6 841.908C889.6 844.69 889.156 847.34 889.008 849.99C895.372 853.17 901.292 856.88 907.064 860.855C910.23 845.461 916.445 830.698 925.416 817.263Z" fill="#0CF540"/>
<path d="M1449 956H-10V965H1449V956Z" fill="#00FFFF"/>
<path d="M401.386 296.564H390.175V326.334L410.605 308.753L412.598 290L401.386 296.564Z" fill="#FF5C00"/>
<path d="M253.395 470.028V449.4L229.727 457.604L235.955 462.292L226.986 470.028H235.955V480.811L244.675 470.028H253.395Z" fill="#FF5C00"/>
<path d="M294.255 476.357L291.016 455.025H289.023L263.859 466.746L269.341 473.075L261.119 482.686L275.32 480.811L284.289 493V480.811L294.255 476.357Z" fill="#FF5C00"/>
<path d="M254.359 455.494L252.385 442.863L250.904 432.336L337.289 386.489L356.541 416.664V421.81H337.289L334.327 430.231H319.025V433.74H315.816V440.757C314.006 440.524 309.893 440.196 307.918 440.757C305.944 441.319 304.298 445.046 303.722 446.839L285.705 455.494H254.359Z" fill="white"/>
<path d="M320.999 344.383V353.506L348.889 375.962L353.826 357.249H351.358V349.062H344.447L346.421 344.383H320.999Z" fill="white"/>
<path d="M336.36 351.885H315.681V358.448H306.214V364.777H276.317L272.829 358.448L260.122 351.885H223L254.392 386.109L252.399 419.161L246.17 421.973V428.068H228.232L231.222 434.163H246.17V441.898H252.399V434.163H260.122V441.898H284.289V434.163H299.736V428.068L321.162 426.193L318.92 419.161H336.36V414.238H359.032V419.161H374.977H441V414.238L389.178 383.999V379.311H351.558V371.575H343.834V358.448H336.36V351.885Z" fill="#1C1E40"/>
<path d="M329.633 337.351V344.383H344.831L340.845 348.837L350.81 350.947L353.551 359.151H360.527V350.947H375.475V344.383H382.95V337.351H390.175V295.86C381.953 291.875 350.063 294.688 340.845 303.361C337.887 306.145 329.882 313.821 335.363 315.936C340.845 318.051 334.617 332.297 335.363 337.351H329.633Z" fill="#FF0000"/>
<path d="M358.534 323.99L361.025 295.626C369.294 293.549 382.202 292.578 382.202 295.626V320.708L375.475 323.99V330.553H367.254L365.011 323.99H358.534Z" fill="white"/>
<path d="M374.728 309.456H367.254V322.583H374.728V309.456Z" fill="black" stroke="black"/>
<g style="mix-blend-mode:hard-light" filter="url(#filter0_f)">
<path d="M336.304 351.985H315.625V358.549H306.158V364.878H276.261L272.773 358.549L260.067 351.985H222.944L254.336 386.209L252.343 419.261L246.115 422.074V428.169H228.176L231.166 434.263H246.115V441.999H252.343V434.263H260.067V441.999H284.233V434.263H299.68V428.169L321.107 426.293L318.864 419.261H336.304V414.338H358.976V419.261H374.921H440.944V414.338L389.123 384.099V379.411H351.502V371.676H343.779V358.549H336.304V351.985Z" stroke="#0094FF" stroke-width="5.41393"/>
</g>
<g style="mix-blend-mode:hard-light" filter="url(#filter1_f)">
<path d="M336.304 351.985H315.625V358.549H306.158V364.878H276.261L272.773 358.549L260.067 351.985H222.944L254.336 386.209L252.343 419.261L246.115 422.074V428.169H228.176L231.166 434.263H246.115V441.999H252.343V434.263H260.067V441.999H284.233V434.263H299.68V428.169L321.107 426.293L318.864 419.261H336.304V414.338H358.976V419.261H374.921H440.944V414.338L389.123 384.099V379.411H351.502V371.676H343.779V358.549H336.304V351.985Z" stroke="#0094FF" stroke-width="7.07975"/>
</g>
<g filter="url(#filter2_f)">
<path d="M336.304 351.985H315.625V358.549H306.158V364.878H276.261L272.773 358.549L260.067 351.985H222.944L254.336 386.209L252.343 419.261L246.115 422.074V428.169H228.176L231.166 434.263H246.115V441.999H252.343V434.263H260.067V441.999H284.233V434.263H299.68V428.169L321.107 426.293L318.864 419.261H336.304V414.338H358.976V419.261H374.921H440.944V414.338L389.123 384.099V379.411H351.502V371.676H343.779V358.549H336.304V351.985Z" stroke="white" stroke-width="1.66582"/>
</g>
<path d="M825.614 162.564H836.825V192.334L816.395 174.753L814.402 156L825.614 162.564Z" fill="#FF5C00"/>
<path d="M973.605 336.028V315.4L997.273 323.604L991.045 328.292L1000.01 336.028H991.045V346.811L982.325 336.028H973.605Z" fill="#FF5C00"/>
<path d="M932.745 342.357L935.984 321.025H937.977L963.141 332.746L957.659 339.075L965.881 348.686L951.68 346.811L942.711 359V346.811L932.745 342.357Z" fill="#FF5C00"/>
<path d="M972.641 321.494L974.615 308.863L976.096 298.336L889.711 252.489L870.459 282.664V287.81H889.711L892.673 296.231H907.975V299.74H911.184V306.757C912.994 306.524 917.107 306.196 919.082 306.757C921.056 307.319 922.702 311.046 923.278 312.839L941.295 321.494H972.641Z" fill="white"/>
<path d="M906.001 210.383V219.506L878.111 241.962L873.174 223.249H875.642V215.062H882.553L880.579 210.383H906.001Z" fill="white"/>
<path d="M890.64 217.885H911.319V224.448H920.786V230.777H950.683L954.171 224.448L966.878 217.885H1004L972.608 252.109L974.601 285.161L980.83 287.973V294.068H998.768L995.778 300.163H980.83V307.898H974.601V300.163H966.878V307.898H942.711V300.163H927.264V294.068L905.838 292.193L908.08 285.161H890.64V280.238H867.968V285.161H852.023H786V280.238L837.822 249.999V245.311H875.442V237.575H883.166V224.448H890.64V217.885Z" fill="#1C1E40"/>
<path d="M897.367 203.351V210.383H882.169L886.155 214.837L876.19 216.947L873.449 225.151H866.473V216.947H851.525V210.383H844.05V203.351H836.825V161.86C845.047 157.875 876.937 160.688 886.155 169.361C889.113 172.145 897.118 179.821 891.637 181.936C886.155 184.051 892.383 198.297 891.637 203.351H897.367Z" fill="#FF0000"/>
<path d="M868.466 189.99L865.975 161.626C857.706 159.55 844.798 158.579 844.798 161.626V186.708L851.525 189.99V196.553H859.746L861.989 189.99H868.466Z" fill="white"/>
<path d="M852.272 175.456H859.746V188.583H852.272V175.456Z" fill="black" stroke="black"/>
<g style="mix-blend-mode:hard-light" filter="url(#filter3_f)">
<path d="M890.696 217.985H911.375V224.549H920.842V230.878H950.739L954.227 224.549L966.933 217.985H1004.06L972.664 252.209L974.657 285.261L980.885 288.074V294.169H998.824L995.834 300.263H980.885V307.999H974.657V300.263H966.933V307.999H942.767V300.263H927.32V294.169L905.893 292.293L908.136 285.261H890.696V280.338H868.024V285.261H852.079H786.056V280.338L837.877 250.099V245.411H875.498V237.676H883.221V224.549H890.696V217.985Z" stroke="#0094FF" stroke-width="5.41393"/>
</g>
<g style="mix-blend-mode:hard-light" filter="url(#filter4_f)">
<path d="M890.696 217.985H911.375V224.549H920.842V230.878H950.739L954.227 224.549L966.933 217.985H1004.06L972.664 252.209L974.657 285.261L980.885 288.074V294.169H998.824L995.834 300.263H980.885V307.999H974.657V300.263H966.933V307.999H942.767V300.263H927.32V294.169L905.893 292.293L908.136 285.261H890.696V280.338H868.024V285.261H852.079H786.056V280.338L837.877 250.099V245.411H875.498V237.676H883.221V224.549H890.696V217.985Z" stroke="#0094FF" stroke-width="7.07975"/>
</g>
<g filter="url(#filter5_f)">
<path d="M890.696 217.985H911.375V224.549H920.842V230.878H950.739L954.227 224.549L966.933 217.985H1004.06L972.664 252.209L974.657 285.261L980.885 288.074V294.169H998.824L995.834 300.263H980.885V307.999H974.657V300.263H966.933V307.999H942.767V300.263H927.32V294.169L905.893 292.293L908.136 285.261H890.696V280.338H868.024V285.261H852.079H786.056V280.338L837.877 250.099V245.411H875.498V237.676H883.221V224.549H890.696V217.985Z" stroke="white" stroke-width="1.66582"/>
</g>
</g>
<defs>
<filter id="filter0_f" x="204.169" y="336.66" width="252.1" height="120.665" filterUnits="userSpaceOnUse" color-interpolation-filters="sRGB">
<feFlood flood-opacity="0" result="BackgroundImageFix"/>
<feBlend mode="normal" in="SourceGraphic" in2="BackgroundImageFix" result="shape"/>
<feGaussianBlur stdDeviation="6.30931" result="effect1_foregroundBlur"/>
</filter>
<filter id="filter1_f" x="210.688" y="344.239" width="238.003" height="105.506" filterUnits="userSpaceOnUse" color-interpolation-filters="sRGB">
<feFlood flood-opacity="0" result="BackgroundImageFix"/>
<feBlend mode="normal" in="SourceGraphic" in2="BackgroundImageFix" result="shape"/>
<feGaussianBlur stdDeviation="2.1031" result="effect1_foregroundBlur"/>
</filter>
<filter id="filter2_f" x="220.495" y="350.597" width="221.838" height="92.7902" filterUnits="userSpaceOnUse" color-interpolation-filters="sRGB">
<feFlood flood-opacity="0" result="BackgroundImageFix"/>
<feBlend mode="normal" in="SourceGraphic" in2="BackgroundImageFix" result="shape"/>
<feGaussianBlur stdDeviation="0.277637" result="effect1_foregroundBlur"/>
</filter>
<filter id="filter3_f" x="770.73" y="202.66" width="252.1" height="120.665" filterUnits="userSpaceOnUse" color-interpolation-filters="sRGB">
<feFlood flood-opacity="0" result="BackgroundImageFix"/>
<feBlend mode="normal" in="SourceGraphic" in2="BackgroundImageFix" result="shape"/>
<feGaussianBlur stdDeviation="6.30931" result="effect1_foregroundBlur"/>
</filter>
<filter id="filter4_f" x="778.31" y="210.239" width="238.003" height="105.506" filterUnits="userSpaceOnUse" color-interpolation-filters="sRGB">
<feFlood flood-opacity="0" result="BackgroundImageFix"/>
<feBlend mode="normal" in="SourceGraphic" in2="BackgroundImageFix" result="shape"/>
<feGaussianBlur stdDeviation="2.1031" result="effect1_foregroundBlur"/>
</filter>
<filter id="filter5_f" x="784.668" y="216.597" width="221.838" height="92.7902" filterUnits="userSpaceOnUse" color-interpolation-filters="sRGB">
<feFlood flood-opacity="0" result="BackgroundImageFix"/>
<feBlend mode="normal" in="SourceGraphic" in2="BackgroundImageFix" result="shape"/>
<feGaussianBlur stdDeviation="0.277637" result="effect1_foregroundBlur"/>
</filter>
<clipPath id="clip0">
<rect width="1440" height="1024" fill="white"/>
</clipPath>
</defs>
</svg>
