<svg width="253" height="203" viewBox="0 0 253 203" fill="none" xmlns="http://www.w3.org/2000/svg">
<path d="M197.386 6.56351H186.175V36.3337L206.605 18.7529L208.598 0L197.386 6.56351Z" fill="#FF5C00"/>
<path d="M49.3955 180.028V159.4L25.7269 167.604L31.9555 172.292L22.9863 180.028H31.9555V190.811L40.6755 180.028H49.3955Z" fill="#FF5C00"/>
<path d="M90.2549 186.357L87.016 165.025H85.0229L59.8595 176.746L65.3406 183.075L57.1189 192.686L71.32 190.811L80.2892 203V190.811L90.2549 186.357Z" fill="#FF5C00"/>
<path d="M50.3595 165.494L48.3849 152.863L46.9041 142.336L133.289 96.4886L152.541 126.664V131.81H133.289L130.327 140.231H115.025V143.74H111.816V150.757C110.006 150.524 105.893 150.196 103.918 150.757C101.944 151.319 100.298 155.046 99.7223 156.839L81.7049 165.494H50.3595Z" fill="white"/>
<path d="M116.999 54.3834V63.5062L144.889 85.9623L149.826 67.2489H147.358V59.0618H140.447L142.421 54.3834H116.999Z" fill="white"/>
<path d="M132.36 61.8845H111.681V68.448H102.214V74.7771H72.3166L68.8286 68.448L56.1223 61.8845H19L50.392 96.1086L48.3989 129.161L42.1703 131.973V138.068H24.232L27.2217 144.163H42.1703V151.898H48.3989V144.163H56.1223V151.898H80.2891V144.163H95.736V138.068L117.162 136.193L114.92 129.161H132.36V124.238H155.032V129.161H170.977H237V124.238L185.178 93.9989V89.3106H147.558V81.5751H139.834V68.448H132.36V61.8845Z" fill="#1C1E40"/>
<path d="M125.633 47.351V54.3833H140.831L136.845 58.8371L146.81 60.9468L149.551 69.1512H156.527V60.9468H171.475V54.3833H178.95V47.351H186.175V5.86024C177.953 1.87525 146.063 4.68818 136.845 13.3614C133.887 16.1446 125.882 23.8206 131.363 25.9357C136.845 28.0508 130.617 42.2972 131.363 47.351H125.633Z" fill="#FF0000"/>
<path d="M154.534 33.9896L157.025 5.62583C165.294 3.54949 178.202 2.5785 178.202 5.62583V30.7078L171.475 33.9896V40.5531H163.254L161.011 33.9896H154.534Z" fill="white"/>
<path d="M170.728 19.4562H163.254V32.5832H170.728V19.4562Z" fill="black" stroke="black"/>
<g style="mix-blend-mode:hard-light" filter="url(#filter0_f)">
<path d="M132.304 61.9851H111.625V68.5486H102.158V74.8777H72.2609L68.7729 68.5486L56.0666 61.9851H18.9443L50.3363 96.2091L48.3432 129.261L42.1146 132.074V138.169H24.1763L27.166 144.263H42.1146V151.999H48.3432V144.263H56.0666V151.999H80.2335V144.263H95.6803V138.169L117.107 136.293L114.864 129.261H132.304V124.338H154.976V129.261H170.921H236.944V124.338L185.123 94.0994V89.4112H147.502V81.6756H139.779V68.5486H132.304V61.9851Z" stroke="#0094FF" stroke-width="5.41393"/>
</g>
<g style="mix-blend-mode:hard-light" filter="url(#filter1_f)">
<path d="M132.304 61.9851H111.625V68.5486H102.158V74.8777H72.2609L68.7729 68.5486L56.0666 61.9851H18.9443L50.3363 96.2091L48.3432 129.261L42.1146 132.074V138.169H24.1763L27.166 144.263H42.1146V151.999H48.3432V144.263H56.0666V151.999H80.2335V144.263H95.6803V138.169L117.107 136.293L114.864 129.261H132.304V124.338H154.976V129.261H170.921H236.944V124.338L185.123 94.0994V89.4112H147.502V81.6756H139.779V68.5486H132.304V61.9851Z" stroke="#0094FF" stroke-width="7.07975"/>
</g>
<g filter="url(#filter2_f)">
<path d="M132.304 61.9851H111.625V68.5486H102.158V74.8777H72.2609L68.7729 68.5486L56.0666 61.9851H18.9443L50.3363 96.2091L48.3432 129.261L42.1146 132.074V138.169H24.1763L27.166 144.263H42.1146V151.999H48.3432V144.263H56.0666V151.999H80.2335V144.263H95.6803V138.169L117.107 136.293L114.864 129.261H132.304V124.338H154.976V129.261H170.921H236.944V124.338L185.123 94.0994V89.4112H147.502V81.6756H139.779V68.5486H132.304V61.9851Z" stroke="white" stroke-width="1.66582"/>
</g>
<defs>
<filter id="filter0_f" x="0.169464" y="46.6596" width="252.1" height="120.665" filterUnits="userSpaceOnUse" color-interpolation-filters="sRGB">
<feFlood flood-opacity="0" result="BackgroundImageFix"/>
<feBlend mode="normal" in="SourceGraphic" in2="BackgroundImageFix" result="shape"/>
<feGaussianBlur stdDeviation="6.30931" result="effect1_foregroundBlur"/>
</filter>
<filter id="filter1_f" x="6.68771" y="54.239" width="238.003" height="105.506" filterUnits="userSpaceOnUse" color-interpolation-filters="sRGB">
<feFlood flood-opacity="0" result="BackgroundImageFix"/>
<feBlend mode="normal" in="SourceGraphic" in2="BackgroundImageFix" result="shape"/>
<feGaussianBlur stdDeviation="2.1031" result="effect1_foregroundBlur"/>
</filter>
<filter id="filter2_f" x="16.4949" y="60.5969" width="221.838" height="92.7902" filterUnits="userSpaceOnUse" color-interpolation-filters="sRGB">
<feFlood flood-opacity="0" result="BackgroundImageFix"/>
<feBlend mode="normal" in="SourceGraphic" in2="BackgroundImageFix" result="shape"/>
<feGaussianBlur stdDeviation="0.277637" result="effect1_foregroundBlur"/>
</filter>
</defs>
</svg>
