<svg width="1440" height="212" viewBox="0 0 1440 212" fill="none" xmlns="http://www.w3.org/2000/svg">
<path d="M87.5 203H0V185.5H50.3125C47.1484 173.411 40.8186 162.385 31.975 153.557C23.1315 144.729 12.0941 138.418 0 135.275C5.6 133.875 11.4625 133 17.5 133C56.175 133 87.5 164.325 87.5 203ZM175 135.275C169.4 133.875 163.538 133 157.5 133C131.863 133 109.55 146.825 97.3 167.388C102.353 178.578 104.949 190.722 104.912 203H174.912V185.5H124.6C127.796 173.413 134.147 162.392 143.003 153.567C151.859 144.741 162.902 138.429 175 135.275ZM119.35 124.425C126.128 106.294 138.71 90.9128 155.137 80.675C117.6 81.9 87.5 112.612 87.5 150.5V150.675C95.8125 139.563 106.75 130.55 119.35 124.425ZM82.425 105.438C78.8017 95.9197 73.2682 87.2444 66.1654 79.946C59.0626 72.6476 50.5409 66.8805 41.125 63C53.725 79.275 61.25 99.575 61.25 121.713C61.25 123.55 60.9875 125.3 60.9 127.05C64.6625 129.15 68.1625 131.6 71.575 134.225C73.4469 124.059 77.1214 114.31 82.425 105.438Z" fill="#0CF540"/>
<path d="M523.5 203H436V185.5H486.312C483.148 173.411 476.819 162.385 467.975 153.557C459.131 144.729 448.094 138.418 436 135.275C441.6 133.875 447.462 133 453.5 133C492.175 133 523.5 164.325 523.5 203ZM611 135.275C605.4 133.875 599.538 133 593.5 133C567.863 133 545.55 146.825 533.3 167.388C538.353 178.578 540.949 190.722 540.912 203H610.912V185.5H560.6C563.796 173.413 570.147 162.392 579.003 153.567C587.859 144.741 598.902 138.429 611 135.275ZM555.35 124.425C562.128 106.294 574.71 90.9128 591.137 80.675C553.6 81.9 523.5 112.612 523.5 150.5V150.675C531.812 139.563 542.75 130.55 555.35 124.425ZM518.425 105.438C514.802 95.9197 509.268 87.2444 502.165 79.946C495.063 72.6476 486.541 66.8805 477.125 63C489.725 79.275 497.25 99.575 497.25 121.713C497.25 123.55 496.987 125.3 496.9 127.05C500.662 129.15 504.163 131.6 507.575 134.225C509.447 124.059 513.121 114.31 518.425 105.438Z" fill="#0CF540"/>
<path d="M698.5 203H611V185.5H661.312C658.148 173.411 651.819 162.385 642.975 153.557C634.131 144.729 623.094 138.418 611 135.275C616.6 133.875 622.462 133 628.5 133C667.175 133 698.5 164.325 698.5 203ZM786 135.275C780.4 133.875 774.538 133 768.5 133C742.863 133 720.55 146.825 708.3 167.388C713.353 178.578 715.949 190.722 715.912 203H785.912V185.5H735.6C738.796 173.413 745.147 162.392 754.003 153.567C762.859 144.741 773.902 138.429 786 135.275ZM730.35 124.425C737.128 106.294 749.71 90.9128 766.137 80.675C728.6 81.9 698.5 112.612 698.5 150.5V150.675C706.812 139.563 717.75 130.55 730.35 124.425ZM693.425 105.438C689.802 95.9197 684.268 87.2444 677.165 79.946C670.063 72.6476 661.541 66.8805 652.125 63C664.725 79.275 672.25 99.575 672.25 121.713C672.25 123.55 671.987 125.3 671.9 127.05C675.662 129.15 679.163 131.6 682.575 134.225C684.447 124.059 688.121 114.31 693.425 105.438Z" fill="#0CF540"/>
<path d="M1134.5 203H1047V185.5H1097.31C1094.15 173.411 1087.82 162.385 1078.98 153.557C1070.13 144.729 1059.09 138.418 1047 135.275C1052.6 133.875 1058.46 133 1064.5 133C1103.17 133 1134.5 164.325 1134.5 203ZM1222 135.275C1216.4 133.875 1210.54 133 1204.5 133C1178.86 133 1156.55 146.825 1144.3 167.388C1149.35 178.578 1151.95 190.722 1151.91 203H1221.91V185.5H1171.6C1174.8 173.413 1181.15 162.392 1190 153.567C1198.86 144.741 1209.9 138.429 1222 135.275ZM1166.35 124.425C1173.13 106.294 1185.71 90.9128 1202.14 80.675C1164.6 81.9 1134.5 112.612 1134.5 150.5V150.675C1142.81 139.563 1153.75 130.55 1166.35 124.425ZM1129.43 105.438C1125.8 95.9197 1120.27 87.2444 1113.17 79.946C1106.06 72.6476 1097.54 66.8805 1088.12 63C1100.72 79.275 1108.25 99.575 1108.25 121.713C1108.25 123.55 1107.99 125.3 1107.9 127.05C1111.66 129.15 1115.16 131.6 1118.58 134.225C1120.45 124.059 1124.12 114.31 1129.43 105.438Z" fill="#0CF540"/>
<path d="M1309.5 203H1222V185.5H1272.31C1269.15 173.411 1262.82 162.385 1253.98 153.557C1245.13 144.729 1234.09 138.418 1222 135.275C1227.6 133.875 1233.46 133 1239.5 133C1278.17 133 1309.5 164.325 1309.5 203ZM1397 135.275C1391.4 133.875 1385.54 133 1379.5 133C1353.86 133 1331.55 146.825 1319.3 167.388C1324.35 178.578 1326.95 190.722 1326.91 203H1396.91V185.5H1346.6C1349.8 173.413 1356.15 162.392 1365 153.567C1373.86 144.741 1384.9 138.429 1397 135.275ZM1341.35 124.425C1348.13 106.294 1360.71 90.9128 1377.14 80.675C1339.6 81.9 1309.5 112.612 1309.5 150.5V150.675C1317.81 139.563 1328.75 130.55 1341.35 124.425ZM1304.43 105.438C1300.8 95.9197 1295.27 87.2444 1288.17 79.946C1281.06 72.6476 1272.54 66.8805 1263.12 63C1275.72 79.275 1283.25 99.575 1283.25 121.713C1283.25 123.55 1282.99 125.3 1282.9 127.05C1286.66 129.15 1290.16 131.6 1293.58 134.225C1295.45 124.059 1299.12 114.31 1304.43 105.438Z" fill="#0CF540"/>
<path d="M1484.5 203H1397V185.5H1447.31C1444.15 173.411 1437.82 162.385 1428.98 153.557C1420.13 144.729 1409.09 138.418 1397 135.275C1402.6 133.875 1408.46 133 1414.5 133C1453.17 133 1484.5 164.325 1484.5 203ZM1572 135.275C1566.4 133.875 1560.54 133 1554.5 133C1528.86 133 1506.55 146.825 1494.3 167.388C1499.35 178.578 1501.95 190.722 1501.91 203H1571.91V185.5H1521.6C1524.8 173.413 1531.15 162.392 1540 153.567C1548.86 144.741 1559.9 138.429 1572 135.275ZM1516.35 124.425C1523.13 106.294 1535.71 90.9128 1552.14 80.675C1514.6 81.9 1484.5 112.612 1484.5 150.5V150.675C1492.81 139.563 1503.75 130.55 1516.35 124.425ZM1479.43 105.438C1475.8 95.9197 1470.27 87.2444 1463.17 79.946C1456.06 72.6476 1447.54 66.8805 1438.12 63C1450.72 79.275 1458.25 99.575 1458.25 121.713C1458.25 123.55 1457.99 125.3 1457.9 127.05C1461.66 129.15 1465.16 131.6 1468.58 134.225C1470.45 124.059 1474.12 114.31 1479.43 105.438Z" fill="#0CF540"/>
<path d="M308 212H174V185.5H251.05C246.204 167.194 236.511 150.497 222.967 137.129C209.424 123.761 192.521 114.204 174 109.445C182.576 107.325 191.554 106 200.8 106C260.028 106 308 153.435 308 212ZM442 109.445C433.424 107.325 424.446 106 415.2 106C375.938 106 341.768 126.935 323.008 158.073C330.746 175.018 334.721 193.407 334.666 212H441.866V185.5H364.816C369.71 167.196 379.436 150.508 392.999 137.144C406.561 123.78 423.472 114.22 442 109.445ZM356.776 93.015C367.156 65.5597 386.425 42.2679 411.582 26.765C354.096 28.62 308 75.1275 308 132.5V132.765C320.73 115.938 337.48 102.29 356.776 93.015ZM300.228 64.2625C294.679 49.8498 286.205 36.713 275.328 25.6611C264.45 14.6092 251.4 5.8762 236.98 0C256.276 24.645 267.8 55.385 267.8 88.9075C267.8 91.69 267.398 94.34 267.264 96.99C273.026 100.17 278.386 103.88 283.612 107.855C286.479 92.461 292.106 77.6979 300.228 64.2625Z" fill="#0CF540"/>
<path d="M934 212H786V185.5H871.1C865.748 167.194 855.042 150.497 840.083 137.129C825.125 123.761 806.456 114.204 786 109.445C795.472 107.325 805.388 106 815.6 106C881.016 106 934 153.435 934 212ZM1082 109.445C1072.53 107.325 1062.61 106 1052.4 106C1009.04 106 971.296 126.935 950.576 158.073C959.122 175.018 963.513 193.407 963.452 212H1081.85V185.5H996.752C1002.16 167.196 1012.9 150.508 1027.88 137.144C1042.86 123.78 1061.54 114.22 1082 109.445ZM987.872 93.015C999.337 65.5597 1020.62 42.2679 1048.4 26.765C984.912 28.62 934 75.1275 934 132.5V132.765C948.06 115.938 966.56 102.29 987.872 93.015ZM925.416 64.2625C919.287 49.8498 909.928 36.713 897.914 25.6611C885.9 14.6092 871.486 5.8762 855.56 0C876.872 24.645 889.6 55.385 889.6 88.9075C889.6 91.69 889.156 94.34 889.008 96.99C895.372 100.17 901.292 103.88 907.064 107.855C910.23 92.461 916.445 77.6979 925.416 64.2625Z" fill="#0CF540"/>
<path d="M1449 203H-10V212H1449V203Z" fill="#00FFFF"/>
</svg>
