<svg width="253" height="203" viewBox="0 0 253 203" fill="none" xmlns="http://www.w3.org/2000/svg">
<path d="M55.6137 6.56351H66.8251V36.3337L46.3954 18.7529L44.4023 0L55.6137 6.56351Z" fill="#FF5C00"/>
<path d="M203.605 180.028V159.4L227.273 167.604L221.045 172.292L230.014 180.028H221.045V190.811L212.325 180.028H203.605Z" fill="#FF5C00"/>
<path d="M162.745 186.357L165.984 165.025H167.977L193.141 176.746L187.659 183.075L195.881 192.686L181.68 190.811L172.711 203V190.811L162.745 186.357Z" fill="#FF5C00"/>
<path d="M202.641 165.494L204.615 152.863L206.096 142.336L119.711 96.4886L100.459 126.664V131.81H119.711L122.673 140.231H137.975V143.74H141.184V150.757C142.994 150.524 147.107 150.196 149.082 150.757C151.056 151.319 152.702 155.046 153.278 156.839L171.295 165.494H202.641Z" fill="white"/>
<path d="M136.001 54.3834V63.5062L108.111 85.9623L103.174 67.2489H105.642V59.0618H112.553L110.579 54.3834H136.001Z" fill="white"/>
<path d="M120.64 61.8845H141.319V68.448H150.786V74.7771H180.683L184.171 68.448L196.878 61.8845H234L202.608 96.1086L204.601 129.161L210.83 131.973V138.068H228.768L225.778 144.163H210.83V151.898H204.601V144.163H196.878V151.898H172.711V144.163H157.264V138.068L135.838 136.193L138.08 129.161H120.64V124.238H97.968V129.161H82.0229H16V124.238L67.8217 93.9989V89.3106H105.442V81.5751H113.166V68.448H120.64V61.8845Z" fill="#1C1E40"/>
<path d="M127.367 47.3511V54.3834H112.169L116.155 58.8372L106.19 60.9469L103.449 69.1513H96.4731V60.9469H81.5245V54.3834H74.0502V47.3511H66.8251V5.8603C75.0468 1.87531 106.937 4.68825 116.155 13.3615C119.113 16.1446 127.118 23.8206 121.637 25.9358C116.155 28.0509 122.383 42.2972 121.637 47.3511H127.367Z" fill="#FF0000"/>
<path d="M98.4663 33.9896L95.9749 5.62589C87.7059 3.54955 74.7977 2.57856 74.7977 5.62589V30.7079L81.5246 33.9896V40.5531H89.7463L91.9886 33.9896H98.4663Z" fill="white"/>
<path d="M82.2721 19.4562H89.7463V32.5832H82.2721V19.4562Z" fill="black" stroke="black"/>
<g style="mix-blend-mode:hard-light" filter="url(#filter0_f)">
<path d="M120.696 61.9851H141.375V68.5486H150.842V74.8777H180.739L184.227 68.5486L196.933 61.9851H234.056L202.664 96.2091L204.657 129.261L210.885 132.074V138.169H228.824L225.834 144.263H210.885V151.999H204.657V144.263H196.933V151.999H172.767V144.263H157.32V138.169L135.893 136.293L138.136 129.261H120.696V124.338H98.0237V129.261H82.0785H16.0557V124.338L67.8774 94.0994V89.4112H105.498V81.6756H113.221V68.5486H120.696V61.9851Z" stroke="#0094FF" stroke-width="5.41393"/>
</g>
<g style="mix-blend-mode:hard-light" filter="url(#filter1_f)">
<path d="M120.696 61.9851H141.375V68.5486H150.842V74.8777H180.739L184.227 68.5486L196.933 61.9851H234.056L202.664 96.2091L204.657 129.261L210.885 132.074V138.169H228.824L225.834 144.263H210.885V151.999H204.657V144.263H196.933V151.999H172.767V144.263H157.32V138.169L135.893 136.293L138.136 129.261H120.696V124.338H98.0237V129.261H82.0785H16.0557V124.338L67.8774 94.0994V89.4112H105.498V81.6756H113.221V68.5486H120.696V61.9851Z" stroke="#0094FF" stroke-width="7.07975"/>
</g>
<g filter="url(#filter2_f)">
<path d="M120.696 61.9851H141.375V68.5486H150.842V74.8777H180.739L184.227 68.5486L196.933 61.9851H234.056L202.664 96.2091L204.657 129.261L210.885 132.074V138.169H228.824L225.834 144.263H210.885V151.999H204.657V144.263H196.933V151.999H172.767V144.263H157.32V138.169L135.893 136.293L138.136 129.261H120.696V124.338H98.0237V129.261H82.0785H16.0557V124.338L67.8774 94.0994V89.4112H105.498V81.6756H113.221V68.5486H120.696V61.9851Z" stroke="white" stroke-width="1.66582"/>
</g>
<defs>
<filter id="filter0_f" x="0.730011" y="46.6596" width="252.1" height="120.665" filterUnits="userSpaceOnUse" color-interpolation-filters="sRGB">
<feFlood flood-opacity="0" result="BackgroundImageFix"/>
<feBlend mode="normal" in="SourceGraphic" in2="BackgroundImageFix" result="shape"/>
<feGaussianBlur stdDeviation="6.30931" result="effect1_foregroundBlur"/>
</filter>
<filter id="filter1_f" x="8.30954" y="54.239" width="238.003" height="105.506" filterUnits="userSpaceOnUse" color-interpolation-filters="sRGB">
<feFlood flood-opacity="0" result="BackgroundImageFix"/>
<feBlend mode="normal" in="SourceGraphic" in2="BackgroundImageFix" result="shape"/>
<feGaussianBlur stdDeviation="2.1031" result="effect1_foregroundBlur"/>
</filter>
<filter id="filter2_f" x="14.6675" y="60.5969" width="221.838" height="92.7902" filterUnits="userSpaceOnUse" color-interpolation-filters="sRGB">
<feFlood flood-opacity="0" result="BackgroundImageFix"/>
<feBlend mode="normal" in="SourceGraphic" in2="BackgroundImageFix" result="shape"/>
<feGaussianBlur stdDeviation="0.277637" result="effect1_foregroundBlur"/>
</filter>
</defs>
</svg>
