<svg width="1440" height="1024" viewBox="0 0 1440 1024" fill="none" xmlns="http://www.w3.org/2000/svg">
<g clip-path="url(#clip0)">
<rect width="1440" height="1024" fill="black"/>
<g filter="url(#filter0_bii)">
<path d="M1393 186.096L1393 380L47 380L47 186.096L80.5 160.995L80.5 3.17374L230.5 3.17376L292 -45.1453L292 -149L1146 -149L1146 -45.1453L1210 3.17384L1351.5 3.17386L1351.5 160.995L1393 186.096Z" fill="white" fill-opacity="0.04"/>
</g>
<path d="M1320.33 507.294L1393.2 379.633L1363.11 390.664L1252.67 584.15L1228.34 596.711L1042 923.178L1059.95 933.424L1298.66 515.2L1320.33 507.294Z" fill="#00FFFF" stroke="#00FFFF"/>
<path d="M119.867 507.294L47 379.633L77.0952 390.664L187.534 584.15L211.86 596.711L398.201 923.178L380.251 933.424L141.537 515.2L119.867 507.294Z" fill="#00FFFF" stroke="#00FFFF"/>
</g>
<defs>
<filter id="filter0_bii" x="-98.9333" y="-294.933" width="1637.87" height="820.867" filterUnits="userSpaceOnUse" color-interpolation-filters="sRGB">
<feFlood flood-opacity="0" result="BackgroundImageFix"/>
<feGaussianBlur in="BackgroundImage" stdDeviation="72.9667"/>
<feComposite in2="SourceAlpha" operator="in" result="effect1_backgroundBlur"/>
<feBlend mode="normal" in="SourceGraphic" in2="effect1_backgroundBlur" result="shape"/>
<feColorMatrix in="SourceAlpha" type="matrix" values="0 0 0 0 0 0 0 0 0 0 0 0 0 0 0 0 0 0 127 0" result="hardAlpha"/>
<feOffset dx="-72.9667" dy="72.9667"/>
<feGaussianBlur stdDeviation="36.4833"/>
<feComposite in2="hardAlpha" operator="arithmetic" k2="-1" k3="1"/>
<feColorMatrix type="matrix" values="0 0 0 0 1 0 0 0 0 1 0 0 0 0 1 0 0 0 0.1 0"/>
<feBlend mode="normal" in2="shape" result="effect2_innerShadow"/>
<feColorMatrix in="SourceAlpha" type="matrix" values="0 0 0 0 0 0 0 0 0 0 0 0 0 0 0 0 0 0 127 0" result="hardAlpha"/>
<feOffset dx="72.9667" dy="-72.9667"/>
<feGaussianBlur stdDeviation="36.4833"/>
<feComposite in2="hardAlpha" operator="arithmetic" k2="-1" k3="1"/>
<feColorMatrix type="matrix" values="0 0 0 0 0.666497 0 0 0 0 0.666497 0 0 0 0 0.666497 0 0 0 0.1 0"/>
<feBlend mode="normal" in2="effect2_innerShadow" result="effect3_innerShadow"/>
</filter>
<clipPath id="clip0">
<rect width="1440" height="1024" fill="white"/>
</clipPath>
</defs>
</svg>
