<svg width="1920" height="224" viewBox="0 0 1920 224" fill="none" xmlns="http://www.w3.org/2000/svg">
<path d="M116.667 214.281H0V195.824H67.0833C62.8646 183.075 54.4247 171.445 42.6333 162.134C30.842 152.823 16.1254 146.167 0 142.853C7.46667 141.376 15.2833 140.453 23.3333 140.453C74.9 140.453 116.667 173.491 116.667 214.281ZM233.333 142.853C225.867 141.376 218.05 140.453 210 140.453C175.817 140.453 146.067 155.034 129.733 176.721C136.47 188.524 139.931 201.331 139.883 214.281H233.217V195.824H166.133C170.394 183.076 178.862 171.452 190.67 162.144C202.478 152.837 217.202 146.179 233.333 142.853V142.853ZM159.133 131.409C168.171 112.287 184.947 96.0642 206.85 85.2666C156.8 86.5586 116.667 118.951 116.667 158.91V159.095C127.75 147.375 142.333 137.869 159.133 131.409ZM109.9 111.383C105.069 101.345 97.691 92.1953 88.2206 84.4977C78.7502 76.8002 67.3878 70.7177 54.8333 66.625C71.6333 83.79 81.6667 105.2 81.6667 128.548C81.6667 130.486 81.3167 132.332 81.2 134.178C86.2167 136.393 90.8833 138.977 95.4333 141.745C97.9292 131.023 102.829 120.741 109.9 111.383V111.383Z" fill="#0CF540"/>
<path d="M698 214.281H581.333V195.824H648.417C644.198 183.075 635.758 171.445 623.967 162.134C612.175 152.823 597.459 146.167 581.333 142.853C588.8 141.376 596.617 140.453 604.667 140.453C656.233 140.453 698 173.491 698 214.281ZM814.667 142.853C807.2 141.376 799.383 140.453 791.333 140.453C757.15 140.453 727.4 155.034 711.067 176.721C717.804 188.524 721.265 201.331 721.217 214.281H814.55V195.824H747.467C751.727 183.076 760.196 171.452 772.004 162.144C783.812 152.837 798.535 146.179 814.667 142.853V142.853ZM740.467 131.409C749.504 112.287 766.28 96.0642 788.183 85.2666C738.133 86.5586 698 118.951 698 158.91V159.095C709.083 147.375 723.667 137.869 740.467 131.409ZM691.233 111.383C686.402 101.345 679.024 92.1953 669.554 84.4977C660.083 76.8002 648.721 70.7177 636.167 66.625C652.967 83.79 663 105.2 663 128.548C663 130.486 662.65 132.332 662.533 134.178C667.55 136.393 672.217 138.977 676.767 141.745C679.263 131.023 684.162 120.741 691.233 111.383V111.383Z" fill="#0CF540"/>
<path d="M931.333 214.281H814.667V195.824H881.75C877.531 183.075 869.091 171.445 857.3 162.134C845.509 152.823 830.792 146.167 814.667 142.853C822.133 141.376 829.95 140.453 838 140.453C889.567 140.453 931.333 173.491 931.333 214.281ZM1048 142.853C1040.53 141.376 1032.72 140.453 1024.67 140.453C990.483 140.453 960.733 155.034 944.4 176.721C951.137 188.524 954.598 201.331 954.55 214.281H1047.88V195.824H980.8C985.061 183.076 993.529 171.452 1005.34 162.144C1017.15 152.837 1031.87 146.179 1048 142.853V142.853ZM973.8 131.409C982.838 112.287 999.614 96.0642 1021.52 85.2666C971.467 86.5586 931.333 118.951 931.333 158.91V159.095C942.417 147.375 957 137.869 973.8 131.409ZM924.567 111.383C919.736 101.345 912.358 92.1953 902.887 84.4977C893.417 76.8002 882.055 70.7177 869.5 66.625C886.3 83.79 896.333 105.2 896.333 128.548C896.333 130.486 895.983 132.332 895.867 134.178C900.883 136.393 905.55 138.977 910.1 141.745C912.596 131.023 917.495 120.741 924.567 111.383V111.383Z" fill="#0CF540"/>
<path d="M1512.67 214.281H1396V195.824H1463.08C1458.86 183.075 1450.42 171.445 1438.63 162.134C1426.84 152.823 1412.13 146.167 1396 142.853C1403.47 141.376 1411.28 140.453 1419.33 140.453C1470.9 140.453 1512.67 173.491 1512.67 214.281ZM1629.33 142.853C1621.87 141.376 1614.05 140.453 1606 140.453C1571.82 140.453 1542.07 155.034 1525.73 176.721C1532.47 188.524 1535.93 201.331 1535.88 214.281H1629.22V195.824H1562.13C1566.39 183.076 1574.86 171.452 1586.67 162.144C1598.48 152.837 1613.2 146.179 1629.33 142.853V142.853ZM1555.13 131.409C1564.17 112.287 1580.95 96.0642 1602.85 85.2666C1552.8 86.5586 1512.67 118.951 1512.67 158.91V159.095C1523.75 147.375 1538.33 137.869 1555.13 131.409ZM1505.9 111.383C1501.07 101.345 1493.69 92.1953 1484.22 84.4977C1474.75 76.8002 1463.39 70.7177 1450.83 66.625C1467.63 83.79 1477.67 105.2 1477.67 128.548C1477.67 130.486 1477.32 132.332 1477.2 134.178C1482.22 136.393 1486.88 138.977 1491.43 141.745C1493.93 131.023 1498.83 120.741 1505.9 111.383V111.383Z" fill="#0CF540"/>
<path d="M1746 214.281H1629.33V195.824H1696.42C1692.2 183.075 1683.76 171.445 1671.97 162.134C1660.18 152.823 1645.46 146.167 1629.33 142.853C1636.8 141.376 1644.62 140.453 1652.67 140.453C1704.23 140.453 1746 173.491 1746 214.281ZM1862.67 142.853C1855.2 141.376 1847.38 140.453 1839.33 140.453C1805.15 140.453 1775.4 155.034 1759.07 176.721C1765.8 188.524 1769.26 201.331 1769.22 214.281H1862.55V195.824H1795.47C1799.73 183.076 1808.2 171.452 1820 162.144C1831.81 152.837 1846.54 146.179 1862.67 142.853V142.853ZM1788.47 131.409C1797.5 112.287 1814.28 96.0642 1836.18 85.2666C1786.13 86.5586 1746 118.951 1746 158.91V159.095C1757.08 147.375 1771.67 137.869 1788.47 131.409ZM1739.23 111.383C1734.4 101.345 1727.02 92.1953 1717.55 84.4977C1708.08 76.8002 1696.72 70.7177 1684.17 66.625C1700.97 83.79 1711 105.2 1711 128.548C1711 130.486 1710.65 132.332 1710.53 134.178C1715.55 136.393 1720.22 138.977 1724.77 141.745C1727.26 131.023 1732.16 120.741 1739.23 111.383V111.383Z" fill="#0CF540"/>
<path d="M1979.33 214.281H1862.67V195.824H1929.75C1925.53 183.075 1917.09 171.445 1905.3 162.134C1893.51 152.823 1878.79 146.167 1862.67 142.853C1870.13 141.376 1877.95 140.453 1886 140.453C1937.57 140.453 1979.33 173.491 1979.33 214.281ZM2096 142.853C2088.53 141.376 2080.72 140.453 2072.67 140.453C2038.48 140.453 2008.73 155.034 1992.4 176.721C1999.14 188.524 2002.6 201.331 2002.55 214.281H2095.88V195.824H2028.8C2033.06 183.076 2041.53 171.452 2053.34 162.144C2065.15 152.837 2079.87 146.179 2096 142.853V142.853ZM2021.8 131.409C2030.84 112.287 2047.61 96.0642 2069.52 85.2666C2019.47 86.5586 1979.33 118.951 1979.33 158.91V159.095C1990.42 147.375 2005 137.869 2021.8 131.409ZM1972.57 111.383C1967.74 101.345 1960.36 92.1953 1950.89 84.4977C1941.42 76.8002 1930.05 70.7177 1917.5 66.625C1934.3 83.79 1944.33 105.2 1944.33 128.548C1944.33 130.486 1943.98 132.332 1943.87 134.178C1948.88 136.393 1953.55 138.977 1958.1 141.745C1960.6 131.023 1965.5 120.741 1972.57 111.383V111.383Z" fill="#0CF540"/>
<path d="M410.667 223.773H232V195.824H334.733C328.273 176.518 315.348 158.907 297.29 144.808C279.232 130.708 256.695 120.63 232 115.61C243.435 113.374 255.405 111.977 267.733 111.977C346.704 111.977 410.667 162.006 410.667 223.773ZM589.333 115.61C577.899 113.374 565.928 111.977 553.6 111.977C501.251 111.977 455.691 134.056 430.677 166.897C440.995 184.769 446.295 204.164 446.221 223.773H589.155V195.824H486.421C492.947 176.52 505.915 158.918 523.998 144.823C542.081 130.729 564.63 120.647 589.333 115.61ZM475.701 98.2815C489.542 69.3247 515.233 44.7591 548.776 28.4084C472.128 30.3648 410.667 79.4157 410.667 139.926V140.205C427.64 122.458 449.973 108.064 475.701 98.2815ZM400.304 67.9565C392.906 52.7557 381.607 38.9004 367.104 27.2441C352.6 15.5878 335.2 6.37724 315.973 0.179688C341.701 26.1725 357.067 58.5936 357.067 93.9493C357.067 96.884 356.531 99.6789 356.352 102.474C364.035 105.828 371.181 109.741 378.149 113.933C381.972 97.6972 389.475 82.1267 400.304 67.9565Z" fill="#0CF540"/>
<path d="M1245.33 223.773H1048V195.824H1161.47C1154.33 176.518 1140.06 158.907 1120.11 144.808C1100.17 130.708 1075.28 120.63 1048 115.61C1060.63 113.374 1073.85 111.977 1087.47 111.977C1174.69 111.977 1245.33 162.006 1245.33 223.773ZM1442.67 115.61C1430.04 113.374 1416.82 111.977 1403.2 111.977C1345.38 111.977 1295.06 134.056 1267.43 166.897C1278.83 184.769 1284.68 204.164 1284.6 223.773H1442.47V195.824H1329C1336.21 176.52 1350.53 158.918 1370.51 144.823C1390.48 130.729 1415.38 120.647 1442.67 115.61ZM1317.16 98.2815C1332.45 69.3247 1360.82 44.7591 1397.87 28.4084C1313.22 30.3648 1245.33 79.4157 1245.33 139.926V140.205C1264.08 122.458 1288.75 108.064 1317.16 98.2815ZM1233.89 67.9565C1225.72 52.7557 1213.24 38.9004 1197.22 27.2441C1181.2 15.5878 1161.98 6.37724 1140.75 0.179688C1169.16 26.1725 1186.13 58.5936 1186.13 93.9493C1186.13 96.884 1185.54 99.6789 1185.34 102.474C1193.83 105.828 1201.72 109.741 1209.42 113.933C1213.64 97.6972 1221.93 82.1267 1233.89 67.9565Z" fill="#0CF540"/>
<path d="M1970 215H-16V224H1970V215Z" fill="#00FFFF"/>
</svg>
